<?xml version="1.0" standalone="no"?>
<!DOCTYPE svg PUBLIC "-//W3C//DTD SVG 20010904//EN"
 "http://www.w3.org/TR/2001/REC-SVG-20010904/DTD/svg10.dtd">
<svg version="1.0" xmlns="http://www.w3.org/2000/svg"
 width="260.000000pt" height="260.000000pt" viewBox="0 0 260.000000 260.000000"
 preserveAspectRatio="xMidYMid meet">
<metadata>
Created by potrace 1.11, written by Peter Selinger 2001-2013
</metadata>
<g transform="translate(0.000000,260.000000) scale(0.100000,-0.100000)"
fill="#000000" stroke="none">
<path d="M934 2001 c-42 -19 -81 -64 -87 -97 -1 -11 -6 -25 -11 -32 -5 -8 -4
-18 1 -23 16 -16 39 0 41 27 7 82 89 134 163 104 42 -18 47 -52 20 -127 -12
-34 -20 -66 -17 -71 3 -5 7 -19 10 -33 2 -13 7 -31 11 -41 5 -12 -6 -22 -45
-42 -28 -14 -57 -31 -64 -38 -38 -38 -85 -112 -105 -164 -56 -143 -84 -187
-177 -279 -50 -49 -146 -135 -215 -190 -68 -55 -133 -108 -144 -119 -11 -10
-30 -25 -42 -33 -13 -9 -23 -23 -23 -33 0 -11 -10 -22 -22 -25 -54 -17 -117
-106 -118 -166 0 -56 34 -43 138 52 63 57 92 70 292 123 30 8 145 40 255 71
110 31 223 62 250 70 49 14 253 71 495 138 69 20 257 72 419 117 l293 82 102
-20 c141 -28 175 -7 96 61 -45 38 -116 63 -149 52 -13 -4 -27 -1 -35 8 -9 9
-76 22 -178 36 -436 59 -497 77 -643 185 -38 29 -97 66 -130 82 -51 25 -71 29
-137 28 l-77 -1 -12 53 c-11 48 -10 58 10 103 16 39 20 59 13 83 -16 65 -102
93 -178 59z m536 -576 c157 -30 296 -58 310 -60 14 -2 50 -9 80 -15 30 -6 66
-13 80 -16 79 -15 178 -36 194 -41 12 -3 -106 -41 -300 -95 -753 -210 -863
-241 -939 -263 -44 -13 -98 -28 -120 -34 -22 -5 -118 -32 -212 -59 -95 -27
-173 -47 -173 -45 0 2 11 14 24 26 74 68 107 98 161 147 33 29 90 81 126 114
99 92 249 229 294 269 22 20 65 59 95 87 39 36 61 49 75 46 11 -3 148 -30 305
-61z"/>
</g>
</svg>
