<?xml version="1.0" encoding="UTF-8" standalone="no"?>
<!-- Created with Inkscape (http://www.inkscape.org/) -->

<svg
   xmlns:dc="http://purl.org/dc/elements/1.1/"
   xmlns:cc="http://creativecommons.org/ns#"
   xmlns:rdf="http://www.w3.org/1999/02/22-rdf-syntax-ns#"
   xmlns:svg="http://www.w3.org/2000/svg"
   xmlns="http://www.w3.org/2000/svg"
   xmlns:sodipodi="http://sodipodi.sourceforge.net/DTD/sodipodi-0.dtd"
   xmlns:inkscape="http://www.inkscape.org/namespaces/inkscape"
   width="220"
   height="100"
   viewBox="0 0 58.20833 26.458334"
   version="1.1"
   id="svg5269"
   inkscape:version="0.92.3 (2405546, 2018-03-11)"
   sodipodi:docname="logo_mobile.svg">
  <defs
     id="defs5263">
    <clipPath
       clipPathUnits="userSpaceOnUse"
       id="clipPath74">
      <path
         d="M 0,960 H 680 V 0 H 0 Z"
         id="path72"
         inkscape:connector-curvature="0" />
    </clipPath>
    <clipPath
       clipPathUnits="userSpaceOnUse"
       id="clipPath74-9">
      <path
         d="M 0,960 H 680 V 0 H 0 Z"
         id="path72-2"
         inkscape:connector-curvature="0" />
    </clipPath>
  </defs>
  <sodipodi:namedview
     id="base"
     pagecolor="#ffffff"
     bordercolor="#666666"
     borderopacity="1.0"
     inkscape:pageopacity="0.0"
     inkscape:pageshadow="2"
     inkscape:zoom="0.98994949"
     inkscape:cx="-23.500134"
     inkscape:cy="18.495626"
     inkscape:document-units="mm"
     inkscape:current-layer="layer1"
     showgrid="false"
     inkscape:window-width="1301"
     inkscape:window-height="744"
     inkscape:window-x="65"
     inkscape:window-y="24"
     inkscape:window-maximized="1"
     units="px" />
  <metadata
     id="metadata5266">
    <rdf:RDF>
      <cc:Work
         rdf:about="">
        <dc:format>image/svg+xml</dc:format>
        <dc:type
           rdf:resource="http://purl.org/dc/dcmitype/StillImage" />
        <dc:title></dc:title>
      </cc:Work>
    </rdf:RDF>
  </metadata>
  <g
     inkscape:label="Capa 1"
     inkscape:groupmode="layer"
     id="layer1"
     transform="translate(0,-270.54165)">
    <g
       aria-label="Atuendo"
       style="font-variant:normal;font-weight:normal;font-stretch:normal;font-size:13.48869514px;font-family:valentine;-inkscape-font-specification:valentine;writing-mode:lr-tb;fill:#241f20;fill-opacity:1;fill-rule:nonzero;stroke:none;stroke-width:0.12577"
       id="text82">
      <path
         d="m 15.908674,287.68287 q 0.391172,0.054 0.741878,-0.17535 0.337217,-0.2428 0.647457,-0.67444 0.31024,-0.44512 0.593503,-1.05212 0.296751,-0.60699 0.580014,-1.32189 -0.593503,-0.027 -1.011652,0.21582 v -0.0135 q -0.09442,0.0675 -0.188842,0.054 -0.08093,-0.027 -0.134887,-0.0809 -0.05395,-0.0675 -0.05395,-0.16187 0,-0.0944 0.08093,-0.18884 0.31024,-0.20233 0.687924,-0.25629 0.377683,-0.0674 0.795833,-0.0405 0.134887,-0.35071 0.256285,-0.7149 0.134887,-0.3642 0.269774,-0.75537 0.215819,-0.62048 0.445127,-1.24096 0.229308,-0.62048 0.472104,-1.187 0.242797,-0.58002 0.499082,-1.0791 0.269774,-0.49908 0.553036,-0.89025 0.269774,-0.35071 0.633969,-0.607 0.364195,-0.26977 0.836299,-0.25628 0.526059,0 0.714901,0.21582 0.188842,0.21582 0.188842,0.60699 0,0.25628 -0.06744,0.63397 v -0.0135 q -0.121398,0.80932 -0.485593,1.92888 -0.364194,1.10608 -0.795833,2.32006 l -0.553036,1.61864 q 0.431638,0.027 0.836299,-0.0944 0.404661,-0.1214 0.674435,-0.4721 0.05395,-0.0674 0.148375,-0.0809 0.09442,-0.0135 0.175353,0.027 0.08093,0.0405 0.10791,0.1214 0.04047,0.0809 0,0.18884 -0.377684,0.51257 -0.944209,0.67444 -0.566525,0.16186 -1.146539,0.1214 -0.350706,1.0656 -0.580014,2.0233 -0.229308,0.94421 -0.229308,1.59167 0,0.49908 0.148376,0.78234 0.148376,0.29675 0.499082,0.33722 0.121398,0.027 0.175353,0.0944 0.06744,0.0809 0.06744,0.17535 0,0.0944 -0.06744,0.16187 -0.06744,0.0674 -0.188842,0.0674 -0.674435,-0.0405 -0.944209,-0.53955 -0.269773,-0.48559 -0.269773,-1.29491 0,-0.74188 0.175353,-1.64562 0.188841,-0.91724 0.458615,-1.88842 -0.148375,-0.027 -0.296751,-0.0675 -0.134887,-0.0539 -0.256285,-0.0809 -0.148376,-0.0405 -0.269774,-0.0809 -0.10791,-0.0405 -0.256285,-0.0674 -0.391173,0.75536 -0.822811,1.4298 -0.418149,0.66094 -0.890254,1.14654 -0.472104,0.48559 -0.984674,0.76885 -0.499082,0.26978 -1.052119,0.2428 -0.404661,-0.0405 -0.687923,-0.22931 -0.283263,-0.20233 -0.472104,-0.51257 -0.188842,-0.31024 -0.269774,-0.72839 -0.09442,-0.41815 -0.09442,-0.89025 0,-0.86328 0.283262,-1.84795 0.283263,-0.98468 0.782345,-1.83447 0.485593,-0.86327 1.146539,-1.48375 0.647457,-0.62048 1.375847,-0.75537 0.337217,-0.027 0.593502,0.0809 0.269774,0.10791 0.445127,0.31024 0.175353,0.18884 0.256285,0.45862 0.09442,0.26977 0.09442,0.56652 0,0.41815 -0.134887,0.86328 -0.121398,0.43164 -0.364194,0.79583 -0.229308,0.3642 -0.553037,0.59351 -0.323729,0.2293 -0.714901,0.2293 -0.404661,0 -0.62048,-0.29675 -0.20233,-0.31024 -0.20233,-0.7149 0,-0.3507 0.161864,-0.67443 0.161865,-0.32373 0.472104,-0.4856 0.134887,-0.0539 0.242797,0 0.10791,0.0405 0.161864,0.13489 0.05396,0.0944 0.04047,0.20233 0,0.10791 -0.09442,0.14838 -0.188842,0.0405 -0.31024,0.26977 -0.10791,0.22931 -0.10791,0.47211 0,0.16186 0.05395,0.29675 0.06744,0.12139 0.215819,0.12139 0.256285,0 0.472104,-0.18884 0.229308,-0.18884 0.391172,-0.4721 0.175353,-0.29675 0.269774,-0.64746 0.10791,-0.3507 0.10791,-0.67443 0,-0.39118 -0.202331,-0.64746 -0.188841,-0.25629 -0.593502,-0.22931 -0.647458,0.10791 -1.200494,0.67444 -0.553037,0.56652 -0.957697,1.36235 -0.41815,0.79584 -0.647458,1.69958 -0.242796,0.90374 -0.242796,1.6726 0,0.72839 0.229308,1.24096 0.215819,0.51257 0.701412,0.5935 z m 4.936862,-3.23729 q 0.269774,-0.89025 0.566525,-1.76702 0.296752,-0.89025 0.566526,-1.69957 0.229307,-0.66095 0.418149,-1.22747 0.202331,-0.58002 0.323729,-0.99817 0.134887,-0.43163 0.161864,-0.67443 0.04047,-0.2428 -0.05395,-0.2428 -0.121398,-0.0135 -0.269774,0.20233 -0.148375,0.20233 -0.337217,0.58002 -0.175353,0.37768 -0.391172,0.90374 -0.202331,0.51257 -0.445127,1.11956 -0.337217,0.82281 -0.72839,1.74004 -0.377683,0.91723 -0.82281,1.80749 z"
         style="font-style:normal;font-variant:normal;font-weight:normal;font-stretch:normal;font-family:valentine;-inkscape-font-specification:valentine;stroke-width:0.12577"
         id="path4776" />
      <path
         d="m 26.901963,284.63443 q -0.175353,0.32372 -0.445127,0.76885 -0.256285,0.44513 -0.580014,0.94421 -0.31024,0.48559 -0.647457,0.97119 -0.337218,0.4721 -0.687924,0.84978 -0.337217,0.37769 -0.660946,0.60699 -0.31024,0.22931 -0.566525,0.21582 -0.472104,-0.0405 -0.674435,-0.41815 -0.20233,-0.39117 -0.20233,-1.03863 0,-0.64745 0.175353,-1.48375 0.161864,-0.84979 0.431638,-1.76702 0.256285,-0.91723 0.580014,-1.84795 0.337218,-0.94421 0.660946,-1.78051 -0.121398,-0.027 -0.256285,-0.0405 -0.134887,-0.0135 -0.256285,-0.0135 -0.283263,0 -0.553037,0.12139 -0.269774,0.1214 -0.418149,0.37769 -0.04047,0.0809 -0.134887,0.10791 -0.09442,0.0135 -0.188842,-0.0135 -0.09442,-0.0405 -0.148376,-0.10791 -0.05395,-0.0674 -0.01349,-0.16187 0.175353,-0.4721 0.553036,-0.63396 0.377684,-0.17536 0.809322,-0.17536 0.188842,0 0.391172,0.027 0.202331,0.027 0.391172,0.0674 0.269774,-0.68792 0.499082,-1.21398 0.229308,-0.53955 0.391172,-0.91723 0.02698,-0.054 0.05395,-0.13489 0.04047,-0.0944 0.05396,-0.13488 0.06744,-0.0675 0.242796,-0.10791 0.188842,-0.0405 0.404661,-0.0405 0.175353,0 0.337217,0.027 0.175353,0.027 0.296752,0.0944 0.134887,0.0539 0.188841,0.14837 0.06744,0.0944 0.02698,0.21582 -0.10791,0.26978 -0.283263,0.70142 -0.161864,0.41814 -0.364195,0.91723 l -0.283262,0.76885 q 0.09442,0.027 0.175353,0.027 0.08093,0 0.175353,0 0.350706,0 0.674435,-0.10791 0.337217,-0.1214 0.472104,-0.43164 0.05396,-0.10791 0.148376,-0.13489 0.09442,-0.027 0.175353,0 0.09442,0.027 0.148375,0.1214 0.05395,0.0809 0.02698,0.20233 -0.06744,0.22931 -0.229308,0.39118 -0.148376,0.14837 -0.364195,0.25628 -0.215819,0.0944 -0.472104,0.14838 -0.242797,0.0405 -0.499082,0.0405 -0.161864,0 -0.323729,-0.0135 -0.148375,-0.0135 -0.296751,-0.0405 -0.31024,0.78234 -0.647457,1.63213 -0.323729,0.8363 -0.633969,1.65911 -0.31024,0.82281 -0.580014,1.56469 -0.256285,0.74188 -0.431638,1.32189 -0.175353,0.58001 -0.229308,0.93072 -0.06744,0.35071 0.02698,0.39117 0.161864,-0.0135 0.40466,-0.24279 0.256286,-0.22931 0.553037,-0.59351 0.296751,-0.37768 0.606991,-0.8363 0.31024,-0.45861 0.593503,-0.91723 0.296751,-0.45861 0.539548,-0.86327 0.256285,-0.41815 0.418149,-0.70142 0.06744,-0.0944 0.10791,-0.16186 0.04047,-0.0809 0.06744,-0.13489 0.05395,-0.0809 0.148376,-0.0674 0.09442,0 0.175353,0.0539 0.09442,0.0405 0.134887,0.13489 0.04047,0.0809 -0.02698,0.17535 z"
         style="font-style:normal;font-variant:normal;font-weight:normal;font-stretch:normal;font-family:valentine;-inkscape-font-specification:valentine;stroke-width:0.12577"
         id="path4778" />
      <path
         d="m 30.692291,282.6381 q 0.06744,-0.0674 0.242796,-0.10791 0.175353,-0.0405 0.391172,-0.0405 0.175353,0 0.337218,0.027 0.175353,0.027 0.31024,0.0944 0.134887,0.054 0.188841,0.14838 0.06744,0.0944 0.01349,0.21582 -0.175353,0.3507 -0.404661,0.79583 -0.229308,0.43164 -0.485593,0.91723 -0.350706,0.63397 -0.701412,1.3084 -0.350706,0.66095 -0.606991,1.21399 -0.256286,0.55303 -0.364195,0.90374 -0.09442,0.3507 0.06744,0.36419 0.175353,0.0135 0.485593,-0.25628 0.31024,-0.26978 0.674435,-0.68793 0.364195,-0.43163 0.741878,-0.9442 0.377684,-0.52606 0.714901,-1.01166 0.337218,-0.48559 0.580014,-0.87676 0.256285,-0.39117 0.364195,-0.56653 0.08093,-0.0944 0.188842,-0.10791 0.107909,-0.027 0.20233,0 0.09442,0.027 0.134887,0.10791 0.04047,0.0809 -0.02698,0.20233 -0.148376,0.22931 -0.431639,0.68793 -0.269773,0.44512 -0.633968,0.98467 -0.364195,0.52606 -0.782345,1.0791 -0.40466,0.55303 -0.82281,1.01165 -0.404661,0.44513 -0.782344,0.72839 -0.377684,0.26977 -0.660946,0.2428 -0.512571,-0.027 -0.72839,-0.33722 -0.20233,-0.32373 -0.20233,-0.8363 0,-0.29675 0.06744,-0.63397 0.06744,-0.3507 0.175353,-0.72839 -0.364195,0.52606 -0.728389,0.98468 -0.364195,0.45861 -0.714901,0.79583 -0.337218,0.33722 -0.647458,0.52606 -0.31024,0.17535 -0.566525,0.14837 -0.51257,-0.0405 -0.714901,-0.3507 -0.215819,-0.31024 -0.215819,-0.80932 0,-0.40466 0.121399,-0.90375 0.121398,-0.49908 0.31024,-1.01165 0.175353,-0.52606 0.40466,-1.03863 0.229308,-0.52606 0.458616,-0.98467 0.10791,-0.21582 0.323729,-0.29675 0.215819,-0.0944 0.431638,-0.0944 0.31024,0 0.51257,0.18884 0.202331,0.17535 0.02698,0.4721 l -0.431639,0.89026 q -0.283262,0.56652 -0.553036,1.14653 -0.283263,0.56653 -0.472104,1.05212 -0.188842,0.4856 -0.256286,0.82281 -0.06744,0.33722 0.06744,0.40466 0.337217,-0.027 0.82281,-0.52606 0.499082,-0.49908 1.03863,-1.22747 0.539548,-0.72839 1.065607,-1.56469 0.526059,-0.83629 0.93072,-1.53771 l 0.458615,-0.87676 q 0.02698,-0.027 0.04047,-0.0405 0.02698,-0.027 0.02698,-0.0539 z"
         style="font-style:normal;font-variant:normal;font-weight:normal;font-stretch:normal;font-family:valentine;-inkscape-font-specification:valentine;stroke-width:0.12577"
         id="path4780" />
      <path
         d="m 33.740734,288.4787 q 0.296752,-0.0135 0.674435,-0.26977 0.377684,-0.25629 0.768856,-0.64746 0.404661,-0.40466 0.795833,-0.89025 0.404661,-0.49908 0.755367,-0.98468 0.350706,-0.48559 0.633968,-0.90374 0.283263,-0.43164 0.445127,-0.7149 v 0.0135 q 0.04047,-0.0809 0.134887,-0.0809 0.09442,0 0.175353,0.054 0.08093,0.0405 0.121399,0.13489 0.05395,0.0944 0.01349,0.18884 -0.188842,0.32373 -0.499082,0.79583 -0.296751,0.47211 -0.660946,0.98468 -0.364194,0.51257 -0.795833,1.02514 -0.418149,0.49908 -0.863276,0.91723 -0.431638,0.40466 -0.876765,0.67443 -0.445127,0.26978 -0.863277,0.29676 -0.404661,0 -0.687923,-0.16187 -0.296752,-0.16186 -0.485593,-0.44513 -0.202331,-0.28326 -0.283263,-0.67443 -0.09442,-0.39117 -0.09442,-0.8363 0,-0.58001 0.148376,-1.21398 0.134887,-0.63397 0.404661,-1.2005 0.269774,-0.58001 0.647457,-1.05211 0.364195,-0.47211 0.836299,-0.74188 h -0.01349 q 0.229307,-0.13489 0.606991,-0.2428 0.391172,-0.1214 0.782344,-0.1214 0.337218,0 0.606991,0.1214 0.269774,0.1214 0.404661,0.43164 0.134887,0.35071 -0.09442,0.80932 -0.215819,0.45862 -0.647457,0.87677 -0.431638,0.41815 -0.998163,0.72839 -0.553037,0.29675 -1.079096,0.3507 -0.229308,0.56653 -0.350706,1.09259 -0.134887,0.52606 -0.134887,0.91723 0,0.33722 0.10791,0.55303 0.107909,0.20233 0.364194,0.21582 z m 2.063771,-5.43594 q -0.229308,-0.027 -0.485593,0.16186 -0.242797,0.18885 -0.499082,0.52606 -0.215819,0.26978 -0.431638,0.64746 -0.215819,0.3642 -0.404661,0.75537 0.364195,-0.0944 0.728389,-0.35071 0.364195,-0.25628 0.647458,-0.58001 0.175353,-0.17536 0.31024,-0.3642 0.134887,-0.18884 0.20233,-0.3507 0.06744,-0.16187 0.05395,-0.28327 -0.01349,-0.12139 -0.121398,-0.16186 z"
         style="font-style:normal;font-variant:normal;font-weight:normal;font-stretch:normal;font-family:valentine;-inkscape-font-specification:valentine;stroke-width:0.12577"
         id="path4782" />
      <path
         d="m 38.583178,287.50752 q -0.05395,0.1214 -0.242797,0.14837 -0.175353,0.0135 -0.364194,-0.0135 -0.202331,-0.0405 -0.364195,-0.12139 -0.161865,-0.0809 -0.175353,-0.16187 -0.04047,-0.31024 0.04047,-0.74188 0.06744,-0.44512 0.161864,-0.91723 0.10791,-0.48559 0.188842,-0.94421 0.06744,-0.4721 0,-0.76885 l 0.01349,-0.0405 q 0.175353,-0.22931 0.553036,-0.22931 0.215819,0 0.41815,0.0809 0.20233,0.0809 0.31024,0.2293 0.08093,0.21582 0.02698,0.71491 -0.04047,0.48559 -0.161864,1.09258 0.283262,-0.48559 0.647457,-1.06561 0.377684,-0.5935 0.809322,-1.09258 0.431638,-0.49908 0.903742,-0.80932 0.485593,-0.31024 0.971186,-0.2428 0.445127,0.0539 0.606992,0.25629 0.175353,0.20233 0.175353,0.4721 0,0.2428 -0.09442,0.4721 -0.08093,0.21582 -0.148376,0.40466 -0.364195,0.68793 -0.728389,1.42981 -0.364195,0.74187 -0.62048,1.37584 -0.242797,0.62048 -0.337218,1.02514 -0.08093,0.40466 0.10791,0.41815 0.175353,0.0135 0.485593,-0.25628 0.31024,-0.26978 0.674435,-0.68793 0.364194,-0.43163 0.741878,-0.9442 0.377683,-0.52606 0.714901,-1.01166 0.337217,-0.48559 0.580014,-0.87676 0.256285,-0.39117 0.364194,-0.56653 0.08093,-0.0944 0.188842,-0.10791 0.10791,-0.027 0.202331,0 0.09442,0.027 0.121398,0.10791 0.04047,0.0809 -0.02698,0.20233 -0.134887,0.22931 -0.418149,0.68793 -0.269774,0.44512 -0.633969,0.98467 -0.364195,0.52606 -0.782344,1.0791 -0.404661,0.55303 -0.822811,1.01165 -0.40466,0.44513 -0.782344,0.72839 -0.377683,0.26977 -0.660946,0.2428 -0.51257,-0.0405 -0.728389,-0.3642 -0.202331,-0.32373 -0.202331,-0.82281 0,-0.52606 0.175353,-1.17352 0.188842,-0.64745 0.445127,-1.3084 0.269774,-0.66094 0.566525,-1.26794 0.296752,-0.60699 0.526059,-1.03863 -0.229307,0.0405 -0.51257,0.29676 -0.283263,0.24279 -0.593503,0.60699 -0.296751,0.3507 -0.62048,0.79583 -0.31024,0.44513 -0.593502,0.89025 -0.269774,0.43164 -0.512571,0.82281 -0.242796,0.39118 -0.391172,0.66095 v -0.0135 l -0.175353,0.29675 q -0.01349,0.0135 -0.01349,0.027 0,0.0135 -0.01349,0.0135 z"
         style="font-style:normal;font-variant:normal;font-weight:normal;font-stretch:normal;font-family:valentine;-inkscape-font-specification:valentine;stroke-width:0.12577"
         id="path4784" />
      <path
         d="m 52.287685,277.71472 q 0.458616,0.0135 0.660947,0.28327 0.215819,0.25628 0.215819,0.68792 0,0.41815 -0.175353,0.9577 -0.161865,0.52606 -0.458616,1.10607 -0.296751,0.58002 -0.701412,1.16003 -0.391172,0.58001 -0.836299,1.07909 -0.445127,0.49909 -0.93072,0.89026 -0.485593,0.39117 -0.944209,0.58001 -0.256285,0.74188 -0.458616,1.4298 -0.20233,0.68793 -0.323728,1.24096 -0.121398,0.53955 -0.148376,0.90375 -0.02698,0.36419 0.06744,0.45861 0.296751,0 0.606991,-0.18884 0.31024,-0.18884 0.62048,-0.49908 0.31024,-0.31024 0.606991,-0.7149 0.31024,-0.40466 0.580014,-0.82281 0.283263,-0.43164 0.526059,-0.84979 0.242797,-0.41815 0.431638,-0.76886 l 0.337218,-0.5935 q 0.05396,-0.0809 0.148375,-0.0809 0.09442,-0.0135 0.175353,0.0405 0.09442,0.0405 0.134887,0.13488 0.05395,0.0809 0,0.17536 v -0.0135 l -0.337217,0.60699 q -0.215819,0.37768 -0.485593,0.84979 -0.269774,0.45861 -0.580014,0.93072 -0.296751,0.45861 -0.633969,0.89025 -0.337217,0.43164 -0.701412,0.76886 -0.350706,0.32372 -0.728389,0.51257 -0.377684,0.18884 -0.741878,0.14837 -0.580014,-0.0405 -0.8363,-0.55304 -0.256285,-0.51257 -0.256285,-1.32189 0,-0.29675 0.02698,-0.60699 0.02698,-0.31024 0.08093,-0.64746 -0.431638,0.56653 -0.93072,1.05212 -0.485593,0.47211 -0.971186,0.60699 -0.31024,0.0405 -0.526059,-0.027 -0.215819,-0.0809 -0.364195,-0.25629 -0.148376,-0.17535 -0.215819,-0.41815 -0.06744,-0.24279 -0.06744,-0.53955 0,-0.51257 0.188842,-1.10607 0.175353,-0.5935 0.51257,-1.10607 0.337218,-0.51257 0.795833,-0.84979 0.458616,-0.33722 1.011653,-0.33722 0.485593,0 0.971186,0.28327 h -0.01349 q 0.188842,0.12139 0.215819,0.32372 0.377684,-1.09258 0.890254,-2.13121 0.51257,-1.05212 1.106073,-1.86144 0.593503,-0.82281 1.213983,-1.32189 0.633968,-0.49908 1.240959,-0.4856 z m -4.801975,7.00064 q 0.05396,-0.18884 0.09442,-0.39117 0.05396,-0.21582 0.121398,-0.41815 -0.107909,0.13488 -0.256285,0.18884 -0.148376,0.0539 -0.296751,-0.027 -0.10791,-0.0674 -0.148376,-0.17535 -0.04047,-0.1214 0.05395,-0.3642 -0.377684,-0.027 -0.714901,0.32373 -0.323729,0.33722 -0.566525,0.8363 -0.242797,0.48559 -0.391172,1.01165 -0.134887,0.52606 -0.134887,0.86328 0,0.33722 0.121398,0.33722 0.242796,-0.10791 0.499082,-0.33722 0.269773,-0.2428 0.539547,-0.53955 0.283263,-0.31024 0.553037,-0.64746 0.283262,-0.3507 0.539548,-0.67443 z m 4.923374,-6.43411 q -0.256285,-0.0539 -0.62048,0.40466 -0.350706,0.45862 -0.755367,1.24096 -0.404661,0.76886 -0.836299,1.76702 -0.41815,0.98467 -0.795833,1.99633 0.431638,-0.28327 0.836299,-0.68793 0.418149,-0.41815 0.768855,-0.89025 0.364195,-0.4721 0.660946,-0.97119 0.31024,-0.49908 0.512571,-0.95769 0.215819,-0.47211 0.337217,-0.86328 0.121399,-0.39117 0.121399,-0.66095 0,-0.3507 -0.21582,-0.37768 z"
         style="font-style:normal;font-variant:normal;font-weight:normal;font-stretch:normal;font-family:valentine;-inkscape-font-specification:valentine;stroke-width:0.12577"
         id="path4786" />
      <path
         d="m 52.597926,289.04523 q -0.404661,-0.0135 -0.701412,-0.20233 -0.31024,-0.18884 -0.51257,-0.49908 -0.215819,-0.32373 -0.31024,-0.72839 -0.10791,-0.41815 -0.10791,-0.89026 0,-0.44512 0.10791,-0.91723 0.107909,-0.4721 0.31024,-0.90374 0.20233,-0.44513 0.499082,-0.82281 0.296751,-0.37768 0.687923,-0.64746 0.04047,-0.49908 0.283263,-0.79583 0.418149,-0.53955 1.038629,-0.53955 0.269774,0 0.526059,0.1214 0.256285,0.10791 0.472105,0.33722 0.256285,0.29675 0.364194,0.72839 0.10791,0.41815 0.10791,0.86327 0,0.33722 -0.04047,0.63397 -0.02698,0.28326 -0.09442,0.53955 0.256285,-0.0674 0.445127,-0.17535 0.188842,-0.10791 0.337217,-0.25629 0.148376,-0.14837 0.269774,-0.32373 0.121398,-0.17535 0.242797,-0.39117 l 0.09442,-0.13489 h -0.01349 q 0.05395,-0.0944 0.148375,-0.10791 0.09442,-0.0135 0.175353,0.0405 0.08093,0.0405 0.121399,0.13489 0.05395,0.0944 0.01349,0.20233 -0.188841,0.31024 -0.377683,0.56652 -0.175353,0.25629 -0.391172,0.45862 -0.215819,0.20233 -0.499082,0.3507 -0.283262,0.13489 -0.687923,0.18885 -0.472105,1.64562 -1.146539,2.40098 -0.674435,0.75537 -1.362359,0.76886 z m 0.93072,-3.52055 q -0.593502,-0.39117 -0.836299,-1.03863 -0.229308,0.58001 -0.337217,1.32189 -0.10791,0.72839 -0.10791,1.34887 0,0.58002 0.08093,0.97119 0.08093,0.39117 0.242797,0.40466 0.377683,0 0.687923,-0.26978 0.31024,-0.28326 0.539548,-0.68792 0.242797,-0.40466 0.41815,-0.86328 0.175353,-0.45861 0.296751,-0.82281 -0.539548,-0.0405 -0.984675,-0.36419 z m 0.283263,-0.41815 q 0.418149,0.25629 0.863276,0.28326 0.04047,-0.20233 0.06744,-0.41815 0.02698,-0.21582 0.02698,-0.40466 0,-0.44512 -0.121398,-0.82281 -0.10791,-0.37768 -0.31024,-0.62048 -0.148376,-0.18884 -0.31024,-0.26977 -0.161864,-0.0944 -0.31024,-0.0944 -0.20233,0 -0.364195,0.1214 -0.121398,0.1079 -0.20233,0.24279 0.134887,-0.0539 0.20233,-0.0135 0.08093,0.0405 0.10791,0.1214 0.04047,0.0809 0.01349,0.17535 -0.02698,0.0944 -0.09442,0.13489 -0.215819,0.1214 -0.350706,0.31024 0.02698,0.37768 0.256285,0.72839 0.229308,0.33722 0.526059,0.52606 z m -0.741878,-1.92888 0.04047,0.0539 0.04047,-0.10791 -0.01349,0.0135 q -0.05395,0.0405 -0.06744,0.0405 z"
         style="font-style:normal;font-variant:normal;font-weight:normal;font-stretch:normal;font-family:valentine;-inkscape-font-specification:valentine;stroke-width:0.12577"
         id="path4788" />
    </g>
    <g
       aria-label="Mi"
       style="font-variant:normal;font-weight:normal;font-stretch:normal;font-size:9.32938004px;font-family:valentine;-inkscape-font-specification:valentine;writing-mode:lr-tb;fill:#e72c2b;fill-opacity:1;fill-rule:nonzero;stroke:none;stroke-width:0.15965751"
       id="text86">
      <path
         d="m 2.2312436,283.92352 q -0.2612226,0.0466 -0.4571396,-0.084 -0.195917,-0.13994 -0.3265283,-0.39184 -0.1306113,-0.25189 -0.195917,-0.59708 -0.065306,-0.34518 -0.065306,-0.72769 0,-0.43848 0.093294,-0.88629 0.083964,-0.44781 0.270552,-0.81166 0.1772582,-0.36384 0.4571396,-0.59708 0.270552,-0.23323 0.6343978,-0.24256 0.4291515,-0.009 0.6997035,0.24256 0.2798814,0.24257 0.4384809,0.67172 0.1585995,0.41982 0.2145757,0.97958 0.065306,0.55044 0.065306,1.15685 0,0.25189 -0.00933,0.44781 0,0.18658 -0.00933,0.37317 0,0.17726 -0.018659,0.36385 -0.00933,0.17726 -0.027988,0.41049 0.1492701,-0.62507 0.3265283,-1.23148 0.1772583,-0.61574 0.3731752,-1.10086 0.2052464,-0.49446 0.4384809,-0.80233 0.2332345,-0.30787 0.5131159,-0.33586 0.4571396,0 0.6250685,0.28921 0.1772582,0.28921 0.1772582,0.72769 0,0.14927 -0.018659,0.30787 -0.018659,0.14927 -0.037318,0.30787 0.2612227,-0.62507 0.5597628,-1.23148 0.3078696,-0.60641 0.6343979,-1.07287 0.3358576,-0.46647 0.6903741,-0.7277 0.3545164,-0.27055 0.7183622,-0.2239 0.466469,0.0653 0.6530566,0.36384 0.195917,0.29855 0.195917,0.76501 0,0.38251 -0.1119525,0.85831 -0.1026232,0.46647 -0.2798814,0.98891 -0.1679289,0.52245 -0.391834,1.08221 -0.2145757,0.55043 -0.4291515,1.10087 -0.195917,0.48512 -0.3825046,0.94226 -0.1772582,0.45714 -0.3171989,0.87697 -0.1306113,0.41049 -0.2145757,0.75568 -0.083964,0.34518 -0.083964,0.6064 0,0.24257 0.083964,0.39184 0.083964,0.14927 0.2798814,0.18659 0.083964,0.0187 0.1212819,0.0746 0.046647,0.056 0.037318,0.12128 0,0.0653 -0.046647,0.11196 -0.046647,0.0466 -0.1306113,0.0466 -0.4384808,-0.0466 -0.6250684,-0.41982 -0.1865876,-0.36385 -0.1865876,-0.94227 0,-0.4758 0.1026231,-1.06355 0.1026232,-0.59708 0.2612227,-1.23147 0.1679288,-0.64373 0.3638458,-1.29679 0.195917,-0.65305 0.3825046,-1.25946 0.270552,-0.83965 0.4571396,-1.49271 0.1865876,-0.66238 0.1865876,-0.98891 0,-0.19592 -0.093294,-0.2239 -0.2239051,0.0186 -0.4851278,0.28921 -0.2518932,0.27055 -0.5317746,0.6997 -0.270552,0.41982 -0.5504334,0.96093 -0.2798814,0.53177 -0.5317747,1.0822 -0.2518933,0.55044 -0.466469,1.07288 -0.2052464,0.52245 -0.3545165,0.92361 v -0.009 q -0.046647,0.32653 0.046647,0.36385 0.018659,0.009 0.00933,0.0373 0,0.0186 -0.018659,0.0186 -0.3358577,-0.0186 -0.466469,-0.26122 -0.1306114,-0.24256 -0.1306114,-0.61574 0,-0.1586 0.018659,-0.34518 0.027988,-0.19592 0.065306,-0.39184 0.037318,-0.20525 0.074635,-0.40116 0.046647,-0.20525 0.083964,-0.38251 0.074635,-0.3172 0.121282,-0.59708 0.046647,-0.27988 0.046647,-0.46647 0,-0.28921 -0.1399407,-0.29854 -0.195917,0.056 -0.3825046,0.40117 -0.1865876,0.34518 -0.3638458,0.8583 -0.1772583,0.51312 -0.3358577,1.13818 -0.1585995,0.61574 -0.3078696,1.23148 -0.1026231,0.41982 -0.2052463,0.80233 -0.093294,0.37317 -0.1865876,0.6997 v 0.0373 q -0.1585995,0.32653 -0.391834,0.53178 -0.2239051,0.20524 -0.4011633,0.20524 -0.1306113,0 -0.195917,-0.12128 -0.065306,-0.13061 -0.027988,-0.40116 0.055976,-0.40117 0.1212819,-0.9516 0.074635,-0.55043 0.1306113,-1.15684 0.065306,-0.60641 0.1026232,-1.22215 0.046647,-0.62507 0.046647,-1.1755 0,-0.42916 -0.037317,-0.80233 -0.027988,-0.37318 -0.1119526,-0.64373 -0.074635,-0.27988 -0.195917,-0.43848 -0.1212819,-0.1586 -0.2892107,-0.16793 -0.2425639,0.0466 -0.4291515,0.27055 -0.1865876,0.21458 -0.3171989,0.53178 -0.1306114,0.3172 -0.195917,0.6997 -0.074635,0.37318 -0.074635,0.73702 0,0.28921 0.037318,0.55044 0.037317,0.25189 0.1212819,0.44781 0.074635,0.19591 0.195917,0.29854 0.1119525,0.10262 0.270552,0.084 0.1772582,-0.028 0.2985402,-0.19592 0.1119525,-0.16792 0.1585994,-0.3825 0.027988,-0.11195 0.018659,-0.24256 -0.00933,-0.13062 -0.055976,-0.24257 -0.046647,-0.11195 -0.1306113,-0.17726 -0.093294,-0.0746 -0.2332345,-0.0653 0.1399407,-0.0466 0.1212819,-0.16793 -0.018659,-0.13061 -0.1306113,-0.14927 0.1026232,0 0.2145757,0.0187 0.1119526,0.009 0.1772583,0.0466 0.1865876,0.10262 0.2892107,0.31719 0.1119526,0.20525 0.1119526,0.44781 0,0.18659 -0.055976,0.38251 -0.046647,0.18659 -0.1492701,0.34519 -0.1026231,0.14927 -0.2518932,0.25189 -0.1492701,0.10262 -0.3451871,0.12128 z m 0,-1.61398 h 0.018659 -0.00933 q -0.018659,0.009 -0.018659,0.009 -0.00933,-0.009 0.00933,-0.009 z"
         style="font-style:normal;font-variant:normal;font-weight:normal;font-stretch:normal;font-family:valentine;-inkscape-font-specification:valentine;stroke-width:0.15965751"
         id="path4771" />
      <path
         d="m 10.441087,282.84131 q 0.04665,-0.0466 0.167928,-0.0746 0.121282,-0.028 0.270552,-0.028 0.121282,0 0.242564,0.0187 0.121282,0.0187 0.205247,0.0653 0.09329,0.0373 0.130611,0.10263 0.04665,0.0653 0.0093,0.14927 -0.13994,0.29854 -0.317199,0.69037 -0.177258,0.39184 -0.345187,0.81166 -0.167928,0.41982 -0.317199,0.83031 -0.13994,0.4105 -0.223905,0.73702 -0.08396,0.32653 -0.09329,0.53178 -0.0093,0.19592 0.102623,0.20524 0.130611,0.009 0.335857,-0.17725 0.214576,-0.18659 0.466469,-0.4758 0.251894,-0.29854 0.513116,-0.65306 0.261223,-0.36384 0.494457,-0.6997 0.233235,-0.33586 0.401164,-0.60641 0.177258,-0.27055 0.251893,-0.39184 0.05598,-0.0653 0.130611,-0.0746 0.07463,-0.0187 0.139941,0 0.06531,0.0187 0.08396,0.0746 0.02799,0.056 -0.01866,0.13994 -0.09329,0.1586 -0.289211,0.4758 -0.186588,0.30787 -0.438481,0.68105 -0.251893,0.36384 -0.541104,0.74635 -0.279881,0.3825 -0.569092,0.6997 -0.279882,0.30787 -0.541104,0.50379 -0.261223,0.18659 -0.45714,0.16793 -0.4291513,-0.0373 -0.5970801,-0.33586 -0.1679289,-0.30787 -0.1679289,-0.78367 0,-0.42915 0.1119526,-0.92361 0.1026232,-0.49445 0.2612226,-0.96092 0.1492701,-0.46647 0.3171988,-0.84898 0.1586,-0.39183 0.270552,-0.58775 z m 0.606409,-0.94226 q -0.14927,-0.056 -0.214575,-0.17726 -0.05598,-0.13061 -0.05598,-0.27988 0,-0.17726 0.07463,-0.37318 0.08397,-0.19592 0.214576,-0.34519 0.139941,-0.1586 0.317199,-0.24256 0.177258,-0.0933 0.373175,-0.056 0.186588,0.0466 0.270552,0.17726 0.08396,0.13061 0.08396,0.3172 0,0.18659 -0.09329,0.38251 -0.08396,0.19591 -0.233235,0.35451 -0.13994,0.14927 -0.335857,0.23324 -0.195917,0.0746 -0.401164,0.009 z"
         style="font-style:normal;font-variant:normal;font-weight:normal;font-stretch:normal;font-family:valentine;-inkscape-font-specification:valentine;stroke-width:0.15965751"
         id="path4773" />
    </g>
  </g>
</svg>
