<?xml version="1.0" encoding="UTF-8" standalone="no"?>
<!-- Created with Inkscape (http://www.inkscape.org/) -->

<svg
   xmlns:dc="http://purl.org/dc/elements/1.1/"
   xmlns:cc="http://creativecommons.org/ns#"
   xmlns:rdf="http://www.w3.org/1999/02/22-rdf-syntax-ns#"
   xmlns:svg="http://www.w3.org/2000/svg"
   xmlns="http://www.w3.org/2000/svg"
   xmlns:sodipodi="http://sodipodi.sourceforge.net/DTD/sodipodi-0.dtd"
   xmlns:inkscape="http://www.inkscape.org/namespaces/inkscape"
   width="500"
   height="270"
   viewBox="0 0 132.29166 71.437502"
   version="1.1"
   id="svg5269"
   inkscape:version="0.92.3 (2405546, 2018-03-11)"
   sodipodi:docname="logo.svg">
  <defs
     id="defs5263">
    <clipPath
       clipPathUnits="userSpaceOnUse"
       id="clipPath74">
      <path
         d="M 0,960 H 680 V 0 H 0 Z"
         id="path72"
         inkscape:connector-curvature="0" />
    </clipPath>
  </defs>
  <sodipodi:namedview
     id="base"
     pagecolor="#ffffff"
     bordercolor="#666666"
     borderopacity="1.0"
     inkscape:pageopacity="0.0"
     inkscape:pageshadow="2"
     inkscape:zoom="0.7"
     inkscape:cx="179.01529"
     inkscape:cy="81.155633"
     inkscape:document-units="mm"
     inkscape:current-layer="layer1"
     showgrid="false"
     inkscape:window-width="1301"
     inkscape:window-height="744"
     inkscape:window-x="65"
     inkscape:window-y="24"
     inkscape:window-maximized="1"
     units="px" />
  <metadata
     id="metadata5266">
    <rdf:RDF>
      <cc:Work
         rdf:about="">
        <dc:format>image/svg+xml</dc:format>
        <dc:type
           rdf:resource="http://purl.org/dc/dcmitype/StillImage" />
        <dc:title></dc:title>
      </cc:Work>
    </rdf:RDF>
  </metadata>
  <g
     inkscape:label="Capa 1"
     inkscape:groupmode="layer"
     id="layer1"
     transform="translate(0,-225.56248)">
    <g
       transform="matrix(0.35277777,0,0,-0.35277777,-47.369004,558.00555)"
       id="g68">
      <g
         id="g70"
         clip-path="url(#clipPath74)">
        <g
           id="g76"
           transform="translate(416.6895,780.8687)">
          <path
             d="m 0,0 c -0.573,0.115 -1.023,0.205 -1.295,0.256 -8.837,1.661 -38.427,7.534 -39.924,7.83 -1.123,-1.032 -23.356,-21.417 -30.049,-27.428 -0.205,-0.185 -0.542,-0.494 -0.972,-0.891 z m -53.901,23.241 0.047,0.036 c 0.094,0.168 0.258,0.318 0.467,0.414 -10e-4,0.029 -10e-4,0.068 0.002,0.122 0.007,0.087 0.015,0.189 0.024,0.278 0.025,0.264 0.064,0.508 0.136,0.775 0.073,0.263 0.176,0.542 0.33,0.873 0.374,0.802 0.928,1.572 1.682,2.193 0.679,0.559 1.512,0.993 2.511,1.221 0.901,0.206 1.768,0.252 2.558,0.164 0.996,-0.111 1.865,-0.439 2.526,-0.942 0.665,-0.506 1.118,-1.188 1.276,-2.002 0.115,-0.594 0.071,-1.263 -0.168,-1.98 -0.186,-0.568 -0.445,-1.129 -0.694,-1.669 -0.443,-0.969 -0.862,-1.875 -0.698,-2.473 l 1.05,-3.852 c 1.694,0.445 2.841,0.529 4.254,0.442 3.905,-0.244 7.452,-2.853 10.047,-4.97 1.78,-1.454 2.3,-1.653 4.278,-2.724 C -19.097,6.39 -3.275,4.947 4.007,3.773 4.131,3.395 4.254,3.018 4.379,2.639 4.961,2.837 5.544,3.035 6.128,3.231 8.18,2.929 9.907,2.415 11.247,1.36 c 0.774,-0.611 3.289,-3.004 1.061,-3.532 -0.63,-0.15 -0.784,-0.077 -1.911,0.12 -1.709,0.298 -4.46,0.846 -6.892,1.339 l -78.368,-21.949 c -1.824,-1.685 -3.889,-3.581 -5.197,-4.724 -0.861,-0.753 -0.955,-0.897 -1.567,-1.096 -2.181,-0.705 -1.272,2.646 -0.931,3.568 0.596,1.6 1.806,2.936 3.403,4.259 0.6,0.137 1.201,0.27 1.802,0.403 -0.089,0.389 -0.181,0.775 -0.271,1.163 5.612,4.784 18.385,14.235 21.376,19.28 1.133,1.943 1.475,2.384 2.24,4.55 1.116,3.157 2.795,7.228 6.003,9.465 1.189,0.827 2.232,1.357 3.977,1.865 l -0.176,-0.049 -0.217,0.798 -0.835,3.057 c -0.248,0.91 0.24,1.971 0.761,3.105 0.236,0.514 0.481,1.044 0.652,1.559 0.182,0.555 0.219,1.067 0.13,1.52 -0.114,0.594 -0.442,1.09 -0.923,1.457 -0.486,0.37 -1.13,0.612 -1.872,0.695 -0.605,0.067 -1.277,0.028 -1.985,-0.133 -0.712,-0.162 -1.31,-0.474 -1.795,-0.875 -0.582,-0.477 -1.015,-1.085 -1.316,-1.73 -0.127,-0.275 -0.211,-0.498 -0.268,-0.706 -0.055,-0.203 -0.086,-0.398 -0.107,-0.613 -0.01,-0.12 -0.016,-0.196 -0.021,-0.26 -0.018,-0.231 -0.028,-0.373 -0.087,-0.52 0.009,-0.025 0.019,-0.05 0.027,-0.076 0.112,-0.398 -0.215,-0.839 -0.73,-0.984 -0.515,-0.144 -1.023,0.063 -1.136,0.462 -0.042,0.149 -0.022,0.304 0.043,0.446 z"
             style="fill:#231f20;fill-opacity:1;fill-rule:evenodd;stroke:none"
             id="path78"
             inkscape:connector-curvature="0" />
        </g>
      </g>
    </g>
    <g
       aria-label="Atuendo"
       style="font-variant:normal;font-weight:normal;font-stretch:normal;font-size:37.8350296px;font-family:valentine;-inkscape-font-specification:valentine;writing-mode:lr-tb;fill:#241f20;fill-opacity:1;fill-rule:nonzero;stroke:none;stroke-width:0.35277775"
       id="text82">
      <path
         d="m 10.579696,268.84267 q 1.097216,0.15134 2.080927,-0.49185 0.945876,-0.68103 1.816081,-1.89175 0.870206,-1.24856 1.664742,-2.95114 0.83237,-1.70257 1.626906,-3.70783 -1.664741,-0.0757 -2.837627,0.60536 v -0.0378 q -0.264845,0.18917 -0.529691,0.15134 -0.22701,-0.0757 -0.37835,-0.22701 -0.15134,-0.18918 -0.15134,-0.45402 0,-0.26485 0.22701,-0.52969 0.870206,-0.56753 1.929587,-0.71887 1.05938,-0.18917 2.232266,-0.1135 0.378351,-0.98372 0.718866,-2.00526 0.37835,-1.02155 0.756701,-2.11876 0.60536,-1.74041 1.248556,-3.48083 0.643195,-1.74041 1.324226,-3.32948 0.68103,-1.6269 1.399896,-3.0268 0.7567,-1.3999 1.551236,-2.49711 0.7567,-0.98371 1.778246,-1.70258 1.021546,-0.7567 2.345772,-0.71886 1.475566,0 2.005257,0.60536 0.52969,0.60536 0.52969,1.70257 0,0.71887 -0.189175,1.77825 v -0.0378 q -0.340515,2.27011 -1.362061,5.41041 -1.021546,3.10248 -2.232267,6.50763 l -1.551236,4.5402 q 1.210721,0.0757 2.345772,-0.26484 1.135051,-0.34052 1.891751,-1.32423 0.15134,-0.18917 0.416186,-0.22701 0.264845,-0.0378 0.491855,0.0757 0.22701,0.11351 0.30268,0.34052 0.113505,0.22701 0,0.52969 -1.059381,1.43773 -2.648452,1.89175 -1.589071,0.45402 -3.215977,0.34051 -0.983711,2.98897 -1.626907,5.67526 -0.643195,2.64845 -0.643195,4.46453 0,1.3999 0.416185,2.19443 0.416185,0.83237 1.399896,0.94588 0.340515,0.0757 0.491856,0.26484 0.189175,0.22701 0.189175,0.49186 0,0.26484 -0.189175,0.45402 -0.189176,0.18917 -0.529691,0.18917 -1.891751,-0.1135 -2.648452,-1.5134 -0.7567,-1.36206 -0.7567,-3.63216 0,-2.08093 0.491855,-4.61587 0.52969,-2.57279 1.286391,-5.29691 -0.416185,-0.0757 -0.832371,-0.18917 -0.37835,-0.15134 -0.718865,-0.22701 -0.416186,-0.11351 -0.756701,-0.22701 -0.30268,-0.11351 -0.718865,-0.18918 -1.097216,2.11876 -2.307937,4.01051 -1.172886,1.85392 -2.497112,3.21598 -1.324226,1.36206 -2.761957,2.1566 -1.399896,0.7567 -2.951133,0.68103 -1.1350506,-0.11351 -1.9295862,-0.6432 -0.7945356,-0.56752 -1.324226,-1.43773 -0.5296904,-0.8702 -0.7567006,-2.04309 -0.2648452,-1.17288 -0.2648452,-2.49711 0,-2.42144 0.7945356,-5.1834 0.7945356,-2.76196 2.1944317,-5.14556 1.3620607,-2.42145 3.2159777,-4.16186 1.816081,-1.74041 3.859173,-2.11876 0.945876,-0.0757 1.664741,0.22701 0.756701,0.30268 1.248556,0.87021 0.491856,0.52969 0.718866,1.28639 0.264845,0.7567 0.264845,1.58907 0,1.17289 -0.37835,2.42144 -0.340516,1.21072 -1.021546,2.23227 -0.643196,1.02154 -1.551236,1.66474 -0.908041,0.64319 -2.005257,0.64319 -1.135051,0 -1.740411,-0.83237 -0.567526,-0.8702 -0.567526,-2.00525 0,-0.98371 0.454021,-1.89175 0.45402,-0.90804 1.324226,-1.36206 0.37835,-0.15135 0.68103,0 0.30268,0.1135 0.454021,0.37835 0.15134,0.26484 0.113505,0.56752 0,0.30268 -0.264846,0.41619 -0.52969,0.1135 -0.870205,0.7567 -0.302681,0.64319 -0.302681,1.32422 0,0.45402 0.151341,0.83237 0.189175,0.34052 0.60536,0.34052 0.718866,0 1.324226,-0.52969 0.643196,-0.52969 1.097216,-1.32423 0.491855,-0.83237 0.756701,-1.81608 0.30268,-0.98371 0.30268,-1.89175 0,-1.09722 -0.567526,-1.81608 -0.52969,-0.71887 -1.664741,-0.6432 -1.816081,0.30268 -3.367318,1.89175 -1.551236,1.58908 -2.686287,3.82134 -1.1728856,2.23227 -1.8160811,4.76722 -0.6810306,2.53494 -0.6810306,4.69154 0,2.04309 0.6431955,3.48082 0.6053605,1.43773 1.9674212,1.66474 z m 13.847621,-9.0804 q 0.756701,-2.49712 1.589071,-4.95639 0.832371,-2.49711 1.589072,-4.76722 0.643195,-1.85391 1.172886,-3.44298 0.567525,-1.62691 0.90804,-2.7998 0.378351,-1.21072 0.454021,-1.89175 0.113505,-0.68103 -0.15134,-0.68103 -0.340516,-0.0378 -0.756701,0.56753 -0.416185,0.56752 -0.945876,1.6269 -0.491855,1.05938 -1.097216,2.53495 -0.567525,1.43773 -1.248556,3.14031 -0.945875,2.30793 -2.043091,4.88072 -1.059381,2.57278 -2.307937,5.06989 z"
         style="font-style:normal;font-variant:normal;font-weight:normal;font-stretch:normal;font-family:valentine;-inkscape-font-specification:valentine;stroke-width:0.35277775"
         id="path4815" />
      <path
         d="m 41.41524,260.29196 q -0.491856,0.90804 -1.248556,2.15659 -0.718866,1.24856 -1.626907,2.64846 -0.870205,1.36206 -1.816081,2.72412 -0.945876,1.32422 -1.929586,2.3836 -0.945876,1.05939 -1.853917,1.70258 -0.870206,0.6432 -1.589071,0.60536 -1.324226,-0.1135 -1.891752,-1.17288 -0.567525,-1.09722 -0.567525,-2.9133 0,-1.81608 0.491855,-4.16186 0.454021,-2.3836 1.210721,-4.95638 0.718866,-2.57279 1.626907,-5.1834 0.945875,-2.64846 1.853916,-4.99423 -0.340515,-0.0757 -0.718866,-0.1135 -0.37835,-0.0378 -0.718865,-0.0378 -0.794536,0 -1.551236,0.34052 -0.756701,0.34051 -1.172886,1.05938 -0.113505,0.22701 -0.378351,0.30268 -0.264845,0.0378 -0.52969,-0.0378 -0.264845,-0.1135 -0.416185,-0.30268 -0.15134,-0.18917 -0.03784,-0.45402 0.491855,-1.32422 1.551236,-1.77824 1.059381,-0.49186 2.270102,-0.49186 0.52969,0 1.097215,0.0757 0.567526,0.0757 1.097216,0.18918 0.756701,-1.92959 1.399896,-3.40516 0.643196,-1.5134 1.097216,-2.57278 0.07567,-0.15134 0.15134,-0.37835 0.113506,-0.26484 0.151341,-0.37835 0.189175,-0.18917 0.68103,-0.30268 0.52969,-0.1135 1.135051,-0.1135 0.491855,0 0.945876,0.0757 0.491855,0.0757 0.83237,0.26484 0.378351,0.15134 0.529691,0.41619 0.189175,0.26484 0.07567,0.60536 -0.30268,0.7567 -0.794536,1.96742 -0.45402,1.17288 -1.021546,2.57278 l -0.794535,2.1566 q 0.264845,0.0757 0.491855,0.0757 0.22701,0 0.491856,0 0.98371,0 1.891751,-0.30268 0.945876,-0.34052 1.324226,-1.21072 0.15134,-0.30268 0.416185,-0.37835 0.264846,-0.0757 0.491856,0 0.264845,0.0757 0.416185,0.34051 0.15134,0.22701 0.07567,0.56753 -0.189175,0.64319 -0.643195,1.09721 -0.416186,0.41619 -1.021546,0.71887 -0.605361,0.26484 -1.324226,0.41618 -0.681031,0.11351 -1.399896,0.11351 -0.454021,0 -0.908041,-0.0378 -0.416185,-0.0378 -0.832371,-0.1135 -0.870205,2.19443 -1.816081,4.57804 -0.908041,2.34577 -1.778246,4.65371 -0.870206,2.30793 -1.626907,4.38886 -0.718865,2.08093 -1.210721,3.70783 -0.491855,1.62691 -0.643195,2.61062 -0.189175,0.98371 0.07567,1.09722 0.45402,-0.0378 1.135051,-0.68104 0.718865,-0.64319 1.551236,-1.66474 0.832371,-1.05938 1.702576,-2.34577 0.870206,-1.28639 1.664742,-2.57278 0.83237,-1.28639 1.513401,-2.42144 0.718865,-1.17289 1.172886,-1.96742 0.189175,-0.26485 0.30268,-0.45402 0.113505,-0.22701 0.189175,-0.37835 0.15134,-0.22701 0.416185,-0.18918 0.264846,0 0.491856,0.15134 0.264845,0.11351 0.37835,0.37835 0.113505,0.22701 -0.07567,0.49186 z"
         style="font-style:normal;font-variant:normal;font-weight:normal;font-stretch:normal;font-family:valentine;-inkscape-font-specification:valentine;stroke-width:0.35277775"
         id="path4817" />
      <path
         d="m 52.046879,254.69237 q 0.189175,-0.18917 0.681031,-0.30268 0.491855,-0.1135 1.097216,-0.1135 0.491855,0 0.945875,0.0757 0.491856,0.0757 0.870206,0.26484 0.37835,0.15134 0.52969,0.41619 0.189176,0.26484 0.03784,0.60536 -0.491856,0.98371 -1.135051,2.23226 -0.643196,1.21073 -1.362061,2.57279 -0.983711,1.77824 -1.967422,3.66999 -0.983711,1.85392 -1.702576,3.40516 -0.718866,1.55123 -1.021546,2.53494 -0.264845,0.98372 0.189175,1.02155 0.491855,0.0378 1.362061,-0.71887 0.870206,-0.7567 1.891752,-1.92958 1.021545,-1.21072 2.080926,-2.64845 1.059381,-1.47557 2.005257,-2.83763 0.945876,-1.36206 1.626906,-2.45928 0.718866,-1.09721 1.021546,-1.58907 0.22701,-0.26484 0.52969,-0.30268 0.302681,-0.0757 0.567526,0 0.264845,0.0757 0.37835,0.30268 0.113505,0.22701 -0.07567,0.56753 -0.416185,0.64319 -1.210721,1.92958 -0.756701,1.24856 -1.778246,2.76196 -1.021546,1.47557 -2.194432,3.0268 -1.135051,1.55124 -2.307937,2.83763 -1.135051,1.24856 -2.194432,2.04309 -1.05938,0.7567 -1.853916,0.68103 -1.437731,-0.0757 -2.043092,-0.94587 -0.567525,-0.90805 -0.567525,-2.34578 0,-0.83237 0.189175,-1.77824 0.189175,-0.98371 0.491855,-2.04309 -1.021545,1.47556 -2.043091,2.76195 -1.021546,1.28639 -2.005257,2.23227 -0.945875,0.94588 -1.816081,1.47557 -0.870206,0.49185 -1.589071,0.41618 -1.437732,-0.1135 -2.005257,-0.98371 -0.60536,-0.87021 -0.60536,-2.2701 0,-1.13505 0.340515,-2.53495 0.340515,-1.39989 0.870205,-2.83763 0.491856,-1.47556 1.135051,-2.91329 0.643196,-1.47557 1.286391,-2.76196 0.302681,-0.60536 0.908041,-0.83237 0.605361,-0.26485 1.210721,-0.26485 0.870206,0 1.437731,0.52969 0.567526,0.49186 0.07567,1.32423 l -1.210721,2.49711 q -0.794535,1.58907 -1.551236,3.21598 -0.794536,1.58907 -1.324226,2.95113 -0.52969,1.36206 -0.718866,2.30794 -0.189175,0.94587 0.189176,1.13505 0.945875,-0.0757 2.307936,-1.47557 1.399897,-1.39989 2.913298,-3.44298 1.513401,-2.0431 2.988967,-4.38887 1.475566,-2.34577 2.610617,-4.31319 l 1.286391,-2.45928 q 0.07567,-0.0757 0.113505,-0.1135 0.07567,-0.0757 0.07567,-0.15134 z"
         style="font-style:normal;font-variant:normal;font-weight:normal;font-stretch:normal;font-family:valentine;-inkscape-font-specification:valentine;stroke-width:0.35277775"
         id="path4819" />
      <path
         d="m 60.597596,271.07494 q 0.832371,-0.0378 1.891752,-0.7567 1.059381,-0.71887 2.156597,-1.81608 1.13505,-1.13505 2.232266,-2.49711 1.135051,-1.3999 2.118762,-2.76196 0.983711,-1.36206 1.778246,-2.53495 0.794536,-1.21072 1.248556,-2.00525 v 0.0378 q 0.113505,-0.22701 0.378351,-0.22701 0.264845,0 0.491855,0.15134 0.22701,0.11351 0.340515,0.37835 0.15134,0.26485 0.03784,0.52969 -0.52969,0.90804 -1.399896,2.23227 -0.83237,1.32422 -1.853916,2.76195 -1.021546,1.43774 -2.232267,2.87547 -1.172886,1.39989 -2.421442,2.57278 -1.210721,1.13505 -2.459277,1.89175 -1.248556,0.7567 -2.421442,0.83237 -1.135051,0 -1.929586,-0.45402 -0.832371,-0.45402 -1.362061,-1.24855 -0.567526,-0.79454 -0.794536,-1.89176 -0.264845,-1.09721 -0.264845,-2.34577 0,-1.6269 0.416185,-3.40515 0.378351,-1.77825 1.135051,-3.36732 0.756701,-1.6269 1.816082,-2.95113 1.021545,-1.32423 2.345771,-2.08093 h -0.03783 q 0.643196,-0.37835 1.702577,-0.68103 1.097216,-0.34051 2.194431,-0.34051 0.945876,0 1.702577,0.34051 0.7567,0.34052 1.135051,1.21072 0.37835,0.98371 -0.264846,2.2701 -0.60536,1.2864 -1.816081,2.45928 -1.210721,1.17289 -2.799792,2.04309 -1.551236,0.83237 -3.026803,0.98371 -0.643195,1.58908 -0.98371,3.06464 -0.378351,1.47557 -0.378351,2.57278 0,0.94588 0.302681,1.55124 0.30268,0.56753 1.021545,0.60536 z m 5.78876,-15.24752 q -0.643196,-0.0757 -1.362061,0.45402 -0.681031,0.52969 -1.399896,1.47557 -0.605361,0.7567 -1.210721,1.81608 -0.605361,1.02155 -1.135051,2.11876 1.021546,-0.26484 2.043092,-0.98371 1.021545,-0.71886 1.816081,-1.6269 0.491855,-0.49186 0.870206,-1.02155 0.37835,-0.52969 0.567525,-0.98371 0.189175,-0.45402 0.15134,-0.79454 -0.03784,-0.34051 -0.340515,-0.45402 z"
         style="font-style:normal;font-variant:normal;font-weight:normal;font-stretch:normal;font-family:valentine;-inkscape-font-specification:valentine;stroke-width:0.35277775"
         id="path4821" />
      <path
         d="m 74.180378,268.35082 q -0.15134,0.34051 -0.681031,0.41618 -0.491855,0.0378 -1.021545,-0.0378 -0.567526,-0.11351 -1.021546,-0.34052 -0.454021,-0.22701 -0.491856,-0.45402 -0.113505,-0.8702 0.113505,-2.08092 0.189176,-1.24856 0.454021,-2.57279 0.30268,-1.36206 0.52969,-2.64845 0.189175,-1.32422 0,-2.15659 l 0.03784,-0.11351 q 0.491856,-0.6432 1.551236,-0.6432 0.605361,0 1.172886,0.22701 0.567526,0.22701 0.870206,0.6432 0.22701,0.60536 0.07567,2.00526 -0.113505,1.36206 -0.45402,3.06463 0.794535,-1.36206 1.816081,-2.98896 1.059381,-1.66474 2.270102,-3.06464 1.210721,-1.3999 2.534947,-2.2701 1.362061,-0.87021 2.724122,-0.68103 1.248556,0.15134 1.702576,0.71886 0.491856,0.56753 0.491856,1.32423 0,0.68103 -0.264845,1.32422 -0.227011,0.60537 -0.416186,1.13506 -1.021546,1.92958 -2.043091,4.01051 -1.021546,2.08093 -1.740412,3.85917 -0.68103,1.74041 -0.945875,2.87546 -0.227011,1.13506 0.30268,1.17289 0.491855,0.0378 1.362061,-0.71887 0.870206,-0.7567 1.891751,-1.92958 1.021546,-1.21072 2.080927,-2.64845 1.059381,-1.47557 2.005257,-2.83763 0.945875,-1.36206 1.626906,-2.45928 0.718865,-1.09721 1.021546,-1.58907 0.22701,-0.26484 0.52969,-0.30268 0.30268,-0.0757 0.567525,0 0.264846,0.0757 0.340516,0.30268 0.113505,0.22701 -0.07567,0.56753 -0.378351,0.64319 -1.172886,1.92958 -0.756701,1.24856 -1.778247,2.76196 -1.021545,1.47557 -2.194431,3.0268 -1.135051,1.55124 -2.307937,2.83763 -1.135051,1.24856 -2.194432,2.04309 -1.059381,0.7567 -1.853916,0.68103 -1.437731,-0.1135 -2.043092,-1.02154 -0.567525,-0.90805 -0.567525,-2.30794 0,-1.47557 0.491855,-3.29165 0.52969,-1.81608 1.248556,-3.67 0.756701,-1.85391 1.589071,-3.55649 0.832371,-1.70258 1.475566,-2.9133 -0.643195,0.11351 -1.437731,0.83237 -0.794535,0.68103 -1.664741,1.70258 -0.832371,0.98371 -1.740411,2.23227 -0.870206,1.24855 -1.664742,2.49711 -0.7567,1.21072 -1.437731,2.30794 -0.68103,1.09721 -1.097216,1.85391 v -0.0378 l -0.491855,0.83237 q -0.03784,0.0378 -0.03784,0.0757 0,0.0378 -0.03784,0.0378 z"
         style="font-style:normal;font-variant:normal;font-weight:normal;font-stretch:normal;font-family:valentine;-inkscape-font-specification:valentine;stroke-width:0.35277775"
         id="path4823" />
      <path
         d="m 112.62076,240.88259 q 1.2864,0.0378 1.85392,0.79453 0.60536,0.71887 0.60536,1.92959 0,1.17288 -0.49185,2.68629 -0.45402,1.47556 -1.28639,3.10247 -0.83238,1.6269 -1.96743,3.25381 -1.09721,1.62691 -2.34577,3.0268 -1.24855,1.3999 -2.61062,2.49711 -1.36206,1.09722 -2.64845,1.62691 -0.71886,2.08093 -1.28639,4.01051 -0.56752,1.92959 -0.90804,3.48083 -0.34051,1.5134 -0.41618,2.53494 -0.0757,1.02155 0.18917,1.2864 0.83237,0 1.70258,-0.5297 0.8702,-0.52969 1.74041,-1.39989 0.8702,-0.87021 1.70257,-2.00526 0.87021,-1.13505 1.62691,-2.30793 0.79454,-1.21073 1.47557,-2.38361 0.68103,-1.17289 1.21072,-2.1566 l 0.94587,-1.66474 q 0.15134,-0.22701 0.41619,-0.22701 0.26484,-0.0378 0.49185,0.11351 0.26485,0.1135 0.37835,0.37835 0.15135,0.22701 0,0.49185 v -0.0378 l -0.94587,1.70257 q -0.60536,1.05938 -1.36206,2.38361 -0.7567,1.28639 -1.62691,2.61062 -0.83237,1.28639 -1.77824,2.49711 -0.94588,1.21072 -1.96743,2.15659 -0.98371,0.90805 -2.04309,1.43774 -1.05938,0.52969 -2.08092,0.41618 -1.626911,-0.1135 -2.345776,-1.55123 -0.718866,-1.43774 -0.718866,-3.70784 0,-0.83237 0.07567,-1.70257 0.07567,-0.87021 0.22701,-1.81609 -1.21072,1.58908 -2.610617,2.95114 -1.362061,1.32422 -2.724122,1.70257 -0.870205,0.11351 -1.475566,-0.0757 -0.60536,-0.22701 -1.021546,-0.71886 -0.416185,-0.49186 -0.60536,-1.17289 -0.189175,-0.68103 -0.189175,-1.5134 0,-1.43773 0.52969,-3.10247 0.491856,-1.66474 1.437731,-3.10247 0.945876,-1.43774 2.232267,-2.38361 1.286391,-0.94588 2.837627,-0.94588 1.362061,0 2.724122,0.79454 h -0.03784 q 0.529686,0.34051 0.605356,0.90804 1.05939,-3.06464 2.49712,-5.97794 1.43773,-2.95113 3.10247,-5.22123 1.66474,-2.30794 3.40515,-3.70783 1.77825,-1.3999 3.48082,-1.36206 z m -13.469266,19.63638 q 0.15134,-0.52969 0.264845,-1.09722 0.15134,-0.60536 0.340516,-1.17288 -0.302681,0.37835 -0.718866,0.52969 -0.416185,0.15134 -0.832371,-0.0757 -0.30268,-0.18918 -0.416185,-0.49186 -0.113505,-0.34052 0.15134,-1.02155 -1.059381,-0.0757 -2.005256,0.90804 -0.908041,0.94588 -1.589072,2.34578 -0.68103,1.36206 -1.097216,2.83762 -0.37835,1.47557 -0.37835,2.42145 0,0.94587 0.340515,0.94587 0.681031,-0.30268 1.399896,-0.94587 0.756701,-0.68103 1.513402,-1.51341 0.794535,-0.8702 1.551236,-1.81608 0.794536,-0.98371 1.513401,-1.89175 z m 13.809786,-18.04731 q -0.71887,-0.15134 -1.74041,1.13505 -0.98371,1.28639 -2.11876,3.48082 -1.13505,2.1566 -2.34578,4.95639 -1.17288,2.76196 -2.23226,5.59958 1.21072,-0.79453 2.34577,-1.92958 1.17289,-1.17289 2.1566,-2.49711 1.02154,-1.32423 1.85391,-2.72413 0.87021,-1.39989 1.43773,-2.68628 0.60536,-1.32423 0.94588,-2.42145 0.34052,-1.09721 0.34052,-1.85391 0,-0.98371 -0.60537,-1.05938 z"
         style="font-style:normal;font-variant:normal;font-weight:normal;font-stretch:normal;font-family:valentine;-inkscape-font-specification:valentine;stroke-width:0.35277775"
         id="path4825" />
      <path
         d="m 113.49096,272.66401 q -1.13505,-0.0378 -1.96742,-0.56752 -0.87021,-0.52969 -1.43773,-1.3999 -0.60536,-0.90804 -0.87021,-2.04309 -0.30268,-1.17289 -0.30268,-2.49711 0,-1.24856 0.30268,-2.57279 0.30268,-1.32422 0.87021,-2.53494 0.56752,-1.24856 1.39989,-2.30794 0.83237,-1.05938 1.92959,-1.81608 0.11351,-1.3999 0.79454,-2.23227 1.17288,-1.5134 2.91329,-1.5134 0.7567,0 1.47557,0.34052 0.71886,0.30268 1.32423,0.94587 0.71886,0.83237 1.02154,2.04309 0.30268,1.17289 0.30268,2.42145 0,0.94587 -0.1135,1.77824 -0.0757,0.79454 -0.26485,1.5134 0.71887,-0.18917 1.24856,-0.49185 0.52969,-0.30268 0.94587,-0.71887 0.41619,-0.41618 0.7567,-0.90804 0.34052,-0.49185 0.68103,-1.09721 l 0.26485,-0.37835 h -0.0378 q 0.15134,-0.26485 0.41619,-0.30268 0.26484,-0.0378 0.49185,0.1135 0.22701,0.11351 0.34052,0.37835 0.15134,0.26485 0.0378,0.56753 -0.52969,0.8702 -1.05938,1.58907 -0.49185,0.71886 -1.09721,1.28639 -0.60536,0.56752 -1.3999,0.98371 -0.79453,0.37835 -1.92958,0.52969 -1.32423,4.61587 -3.21598,6.73463 -1.89175,2.11877 -3.82134,2.1566 z m 2.61062,-9.87494 q -1.66474,-1.09722 -2.34577,-2.9133 -0.6432,1.62691 -0.94588,3.70783 -0.30268,2.0431 -0.30268,3.78351 0,1.6269 0.22701,2.72412 0.22701,1.09722 0.68103,1.13505 1.05938,0 1.92959,-0.7567 0.8702,-0.79454 1.5134,-1.92959 0.68103,-1.13505 1.17288,-2.42144 0.49186,-1.28639 0.83237,-2.30794 -1.5134,-0.1135 -2.76195,-1.02154 z m 0.79453,-1.17289 q 1.17289,0.71887 2.42144,0.79454 0.11351,-0.56753 0.18918,-1.17289 0.0757,-0.60536 0.0757,-1.13505 0,-1.24855 -0.34052,-2.30794 -0.30268,-1.05938 -0.8702,-1.74041 -0.41619,-0.52969 -0.87021,-0.7567 -0.45402,-0.26484 -0.8702,-0.26484 -0.56753,0 -1.02155,0.34051 -0.34051,0.30268 -0.56752,0.68103 0.37835,-0.15134 0.56752,-0.0378 0.22701,0.1135 0.30268,0.34051 0.11351,0.22701 0.0378,0.49186 -0.0757,0.26484 -0.26485,0.37835 -0.60536,0.34051 -0.98371,0.8702 0.0757,1.05939 0.71887,2.0431 0.64319,0.94587 1.47556,1.47556 z m -2.08092,-5.41041 0.1135,0.15134 0.11351,-0.30268 -0.0378,0.0378 q -0.15134,0.1135 -0.18917,0.1135 z"
         style="font-style:normal;font-variant:normal;font-weight:normal;font-stretch:normal;font-family:valentine;-inkscape-font-specification:valentine;stroke-width:0.35277775"
         id="path4827" />
    </g>
    <g
       aria-label="Mi"
       style="font-variant:normal;font-weight:normal;font-stretch:normal;font-size:20.61411095px;font-family:valentine;-inkscape-font-specification:valentine;writing-mode:lr-tb;fill:#e72c2b;fill-opacity:1;fill-rule:nonzero;stroke:none;stroke-width:0.35277775"
       id="text86">
      <path
         d="m 55.291215,242.31891 q -0.577195,0.10307 -1.010092,-0.18553 -0.432896,-0.30921 -0.721493,-0.86579 -0.288598,-0.55658 -0.432897,-1.31931 -0.144299,-0.76272 -0.144299,-1.6079 0,-0.96886 0.206142,-1.95834 0.185527,-0.98947 0.597809,-1.79342 0.391668,-0.80396 1.010091,-1.31931 0.597809,-0.51535 1.40176,-0.53596 0.948249,-0.0206 1.546058,0.53596 0.618423,0.53597 0.968863,1.48422 0.35044,0.92763 0.474125,2.16448 0.144299,1.21623 0.144299,2.55615 0,0.55658 -0.02061,0.98948 0,0.41228 -0.02061,0.82456 0,0.39167 -0.04123,0.80395 -0.02061,0.39167 -0.06184,0.90702 0.329826,-1.38114 0.721494,-2.72106 0.391668,-1.36053 0.824564,-2.43247 0.453511,-1.09254 0.968863,-1.77281 0.515353,-0.68026 1.133777,-0.74211 1.010091,0 1.381145,0.63904 0.391668,0.63904 0.391668,1.6079 0,0.32983 -0.04123,0.68027 -0.04123,0.32982 -0.08246,0.68026 0.577196,-1.38114 1.236847,-2.72106 0.680266,-1.33992 1.40176,-2.37062 0.742108,-1.03071 1.525444,-1.6079 0.783336,-0.59781 1.587286,-0.49474 1.030706,0.1443 1.442988,0.80395 0.432896,0.65965 0.432896,1.69036 0,0.84517 -0.247369,1.89649 -0.226755,1.03071 -0.618423,2.1851 -0.371054,1.15439 -0.865793,2.39124 -0.474124,1.21623 -0.948249,2.43246 -0.432896,1.07194 -0.845179,2.08203 -0.391668,1.01009 -0.700879,1.93772 -0.288598,0.90702 -0.474125,1.66975 -0.185527,0.76272 -0.185527,1.33991 0,0.53597 0.185527,0.8658 0.185527,0.32982 0.618423,0.41228 0.185527,0.0412 0.267984,0.16491 0.10307,0.12369 0.08246,0.26798 0,0.1443 -0.10307,0.24737 -0.103071,0.10307 -0.288598,0.10307 -0.968863,-0.10307 -1.381145,-0.92763 -0.412282,-0.80395 -0.412282,-2.08203 0,-1.05132 0.226755,-2.35 0.226755,-1.31931 0.577195,-2.72107 0.371054,-1.42237 0.80395,-2.86536 0.432897,-1.44299 0.845179,-2.7829 0.597809,-1.85527 1.010091,-3.29826 0.412282,-1.4636 0.412282,-2.1851 0,-0.43289 -0.206141,-0.49474 -0.494738,0.0412 -1.071933,0.63904 -0.556581,0.59781 -1.175005,1.54606 -0.597809,0.92763 -1.216232,2.12325 -0.618424,1.17501 -1.175005,2.39124 -0.556581,1.21623 -1.030705,2.37062 -0.453511,1.15439 -0.783336,2.0408 v -0.0206 q -0.103071,0.72149 0.10307,0.80395 0.04123,0.0206 0.02061,0.0824 0,0.0412 -0.04123,0.0412 -0.742108,-0.0412 -1.030705,-0.57719 -0.288598,-0.53597 -0.288598,-1.36054 0,-0.35044 0.04123,-0.76272 0.06184,-0.43289 0.144299,-0.86579 0.08246,-0.45351 0.164913,-0.88641 0.10307,-0.45351 0.185527,-0.84518 0.164913,-0.70088 0.267983,-1.3193 0.103071,-0.61842 0.103071,-1.0307 0,-0.63904 -0.309212,-0.65966 -0.432896,0.12369 -0.845178,0.88641 -0.412283,0.76272 -0.803951,1.8965 -0.391668,1.13378 -0.742108,2.51492 -0.35044,1.36053 -0.680265,2.72106 -0.226756,0.92764 -0.453511,1.77282 -0.206141,0.82456 -0.412282,1.54606 v 0.0824 q -0.35044,0.7215 -0.865793,1.17501 -0.494738,0.45351 -0.886406,0.45351 -0.288598,0 -0.432897,-0.26799 -0.144299,-0.28859 -0.06184,-0.8864 0.123685,-0.88641 0.267983,-2.10264 0.164913,-1.21624 0.288598,-2.55615 0.144299,-1.33992 0.226755,-2.70045 0.103071,-1.38115 0.103071,-2.59738 0,-0.94825 -0.08246,-1.77281 -0.06184,-0.82457 -0.247369,-1.42238 -0.164913,-0.61842 -0.432896,-0.96886 -0.267984,-0.35044 -0.639038,-0.37105 -0.535967,0.10307 -0.948249,0.59781 -0.412282,0.47412 -0.70088,1.175 -0.288597,0.70088 -0.432896,1.54606 -0.164913,0.82456 -0.164913,1.62851 0,0.63904 0.08246,1.21624 0.08246,0.55658 0.267984,0.98947 0.164913,0.4329 0.432896,0.65965 0.24737,0.22676 0.597809,0.18553 0.391669,-0.0618 0.659652,-0.4329 0.247369,-0.37105 0.35044,-0.84517 0.06184,-0.24737 0.04123,-0.53597 -0.02061,-0.2886 -0.123685,-0.53597 -0.10307,-0.24737 -0.288597,-0.39167 -0.206141,-0.16491 -0.515353,-0.14429 0.309212,-0.10307 0.267984,-0.37106 -0.04123,-0.2886 -0.288598,-0.32982 0.226755,0 0.474125,0.0412 0.247369,0.0206 0.391668,0.10307 0.412282,0.22676 0.639037,0.70088 0.247369,0.45351 0.247369,0.98948 0,0.41228 -0.123684,0.84518 -0.103071,0.41228 -0.329826,0.76272 -0.226755,0.32983 -0.556581,0.55658 -0.329826,0.22676 -0.762722,0.26799 z m 0,-3.56624 h 0.04123 -0.02061 q -0.04123,0.0206 -0.04123,0.0206 -0.02061,-0.0206 0.02061,-0.0206 z"
         style="font-style:normal;font-variant:normal;font-weight:normal;font-stretch:normal;font-family:valentine;-inkscape-font-specification:valentine;stroke-width:0.35277775"
         id="path4810" />
      <path
         d="m 73.431634,239.92767 q 0.103071,-0.10307 0.371054,-0.16491 0.267984,-0.0618 0.59781,-0.0618 0.267983,0 0.535967,0.0412 0.267983,0.0412 0.45351,0.1443 0.206141,0.0825 0.288598,0.22676 0.10307,0.1443 0.02061,0.32982 -0.309212,0.65965 -0.70088,1.52545 -0.391668,0.86579 -0.762722,1.79342 -0.371054,0.92764 -0.70088,1.83466 -0.309212,0.90702 -0.494739,1.62852 -0.185527,0.72149 -0.206141,1.175 -0.02061,0.4329 0.226755,0.45351 0.288598,0.0206 0.742108,-0.39167 0.474125,-0.41228 1.030706,-1.05132 0.556581,-0.65965 1.133776,-1.44299 0.577195,-0.80395 1.092548,-1.54605 0.515353,-0.74211 0.886407,-1.33992 0.391668,-0.59781 0.556581,-0.86579 0.123684,-0.1443 0.288597,-0.16492 0.164913,-0.0412 0.309212,0 0.144299,0.0412 0.185527,0.16492 0.06184,0.12368 -0.04123,0.30921 -0.206141,0.35044 -0.639038,1.05132 -0.412282,0.68026 -0.968863,1.50483 -0.556581,0.80395 -1.195618,1.64913 -0.618424,0.84518 -1.257461,1.54605 -0.618423,0.68027 -1.195619,1.11317 -0.577195,0.41228 -1.010091,0.37105 -0.948249,-0.0825 -1.319303,-0.74211 -0.371054,-0.68026 -0.371054,-1.73158 0,-0.94825 0.247369,-2.0408 0.226755,-1.09255 0.577195,-2.12325 0.329826,-1.03071 0.70088,-1.87589 0.35044,-0.86579 0.597809,-1.29869 z m 1.339918,-2.08203 q -0.329826,-0.12368 -0.474125,-0.39166 -0.123685,-0.2886 -0.123685,-0.61843 0,-0.39166 0.164913,-0.82456 0.185527,-0.4329 0.474125,-0.76272 0.309212,-0.35044 0.70088,-0.53597 0.391668,-0.20614 0.824564,-0.12368 0.412282,0.10307 0.597809,0.39166 0.185527,0.2886 0.185527,0.70088 0,0.41229 -0.206141,0.84518 -0.185527,0.4329 -0.515353,0.78334 -0.309211,0.32982 -0.742108,0.51535 -0.432896,0.16491 -0.886406,0.0206 z"
         style="font-style:normal;font-variant:normal;font-weight:normal;font-stretch:normal;font-family:valentine;-inkscape-font-specification:valentine;stroke-width:0.35277775"
         id="path4812" />
    </g>
  </g>
</svg>
