<?xml version="1.0" encoding="UTF-8" standalone="no"?>
<!-- Created with Inkscape (http://www.inkscape.org/) -->

<svg
   xmlns:dc="http://purl.org/dc/elements/1.1/"
   xmlns:cc="http://creativecommons.org/ns#"
   xmlns:rdf="http://www.w3.org/1999/02/22-rdf-syntax-ns#"
   xmlns:svg="http://www.w3.org/2000/svg"
   xmlns="http://www.w3.org/2000/svg"
   xmlns:sodipodi="http://sodipodi.sourceforge.net/DTD/sodipodi-0.dtd"
   xmlns:inkscape="http://www.inkscape.org/namespaces/inkscape"
   width="500"
   height="270"
   viewBox="0 0 132.29166 71.437502"
   version="1.1"
   id="svg5269"
   inkscape:version="0.92.3 (2405546, 2018-03-11)"
   sodipodi:docname="logo.svg">
  <defs
     id="defs5263">
    <clipPath
       clipPathUnits="userSpaceOnUse"
       id="clipPath74">
      <path
         d="M 0,960 H 680 V 0 H 0 Z"
         id="path72"
         inkscape:connector-curvature="0" />
    </clipPath>
  </defs>
  <sodipodi:namedview
     id="base"
     pagecolor="#ffffff"
     bordercolor="#666666"
     borderopacity="1.0"
     inkscape:pageopacity="0.0"
     inkscape:pageshadow="2"
     inkscape:zoom="0.7"
     inkscape:cx="-56.698994"
     inkscape:cy="19.727062"
     inkscape:document-units="mm"
     inkscape:current-layer="layer1"
     showgrid="false"
     inkscape:window-width="1301"
     inkscape:window-height="744"
     inkscape:window-x="65"
     inkscape:window-y="24"
     inkscape:window-maximized="1"
     units="px" />
  <metadata
     id="metadata5266">
    <rdf:RDF>
      <cc:Work
         rdf:about="">
        <dc:format>image/svg+xml</dc:format>
        <dc:type
           rdf:resource="http://purl.org/dc/dcmitype/StillImage" />
        <dc:title></dc:title>
      </cc:Work>
    </rdf:RDF>
  </metadata>
  <g
     inkscape:label="Capa 1"
     inkscape:groupmode="layer"
     id="layer1"
     transform="translate(0,-225.56248)">
    <g
       transform="matrix(0.35277777,0,0,-0.35277777,-47.369004,558.00555)"
       id="g68">
      <g
         id="g70"
         clip-path="url(#clipPath74)">
        <g
           id="g76"
           transform="translate(416.6895,780.8687)">
          <path
             d="m 0,0 c -0.573,0.115 -1.023,0.205 -1.295,0.256 -8.837,1.661 -38.427,7.534 -39.924,7.83 -1.123,-1.032 -23.356,-21.417 -30.049,-27.428 -0.205,-0.185 -0.542,-0.494 -0.972,-0.891 z m -53.901,23.241 0.047,0.036 c 0.094,0.168 0.258,0.318 0.467,0.414 -10e-4,0.029 -10e-4,0.068 0.002,0.122 0.007,0.087 0.015,0.189 0.024,0.278 0.025,0.264 0.064,0.508 0.136,0.775 0.073,0.263 0.176,0.542 0.33,0.873 0.374,0.802 0.928,1.572 1.682,2.193 0.679,0.559 1.512,0.993 2.511,1.221 0.901,0.206 1.768,0.252 2.558,0.164 0.996,-0.111 1.865,-0.439 2.526,-0.942 0.665,-0.506 1.118,-1.188 1.276,-2.002 0.115,-0.594 0.071,-1.263 -0.168,-1.98 -0.186,-0.568 -0.445,-1.129 -0.694,-1.669 -0.443,-0.969 -0.862,-1.875 -0.698,-2.473 l 1.05,-3.852 c 1.694,0.445 2.841,0.529 4.254,0.442 3.905,-0.244 7.452,-2.853 10.047,-4.97 1.78,-1.454 2.3,-1.653 4.278,-2.724 C -19.097,6.39 -3.275,4.947 4.007,3.773 4.131,3.395 4.254,3.018 4.379,2.639 4.961,2.837 5.544,3.035 6.128,3.231 8.18,2.929 9.907,2.415 11.247,1.36 c 0.774,-0.611 3.289,-3.004 1.061,-3.532 -0.63,-0.15 -0.784,-0.077 -1.911,0.12 -1.709,0.298 -4.46,0.846 -6.892,1.339 l -78.368,-21.949 c -1.824,-1.685 -3.889,-3.581 -5.197,-4.724 -0.861,-0.753 -0.955,-0.897 -1.567,-1.096 -2.181,-0.705 -1.272,2.646 -0.931,3.568 0.596,1.6 1.806,2.936 3.403,4.259 0.6,0.137 1.201,0.27 1.802,0.403 -0.089,0.389 -0.181,0.775 -0.271,1.163 5.612,4.784 18.385,14.235 21.376,19.28 1.133,1.943 1.475,2.384 2.24,4.55 1.116,3.157 2.795,7.228 6.003,9.465 1.189,0.827 2.232,1.357 3.977,1.865 l -0.176,-0.049 -0.217,0.798 -0.835,3.057 c -0.248,0.91 0.24,1.971 0.761,3.105 0.236,0.514 0.481,1.044 0.652,1.559 0.182,0.555 0.219,1.067 0.13,1.52 -0.114,0.594 -0.442,1.09 -0.923,1.457 -0.486,0.37 -1.13,0.612 -1.872,0.695 -0.605,0.067 -1.277,0.028 -1.985,-0.133 -0.712,-0.162 -1.31,-0.474 -1.795,-0.875 -0.582,-0.477 -1.015,-1.085 -1.316,-1.73 -0.127,-0.275 -0.211,-0.498 -0.268,-0.706 -0.055,-0.203 -0.086,-0.398 -0.107,-0.613 -0.01,-0.12 -0.016,-0.196 -0.021,-0.26 -0.018,-0.231 -0.028,-0.373 -0.087,-0.52 0.009,-0.025 0.019,-0.05 0.027,-0.076 0.112,-0.398 -0.215,-0.839 -0.73,-0.984 -0.515,-0.144 -1.023,0.063 -1.136,0.462 -0.042,0.149 -0.022,0.304 0.043,0.446 z"
             style="fill:#231f20;fill-opacity:1;fill-rule:evenodd;stroke:none"
             id="path78"
             inkscape:connector-curvature="0" />
        </g>
      </g>
    </g>
    <text
       y="273.57205"
       x="13.228148"
       style="font-variant:normal;font-weight:normal;font-stretch:normal;font-size:37.8350296px;font-family:valentine;-inkscape-font-specification:valentine;writing-mode:lr-tb;fill:#241f20;fill-opacity:1;fill-rule:nonzero;stroke:none;stroke-width:0.35277775"
       id="text82">
      <tspan
         style="font-style:normal;font-variant:normal;font-weight:normal;font-stretch:normal;font-family:valentine;-inkscape-font-specification:valentine;stroke-width:0.35277775"
         x="13.228148 32.107822 41.982761 60.711102 73.348007 93.249229 113.11261"
         y="273.57205"
         sodipodi:role="line"
         id="tspan80">Atuendo</tspan>
    </text>
    <text
       y="250.21411"
       x="56.095165"
       style="font-variant:normal;font-weight:normal;font-stretch:normal;font-size:20.61411095px;font-family:valentine;-inkscape-font-specification:valentine;writing-mode:lr-tb;fill:#e72c2b;fill-opacity:1;fill-rule:nonzero;stroke:none;stroke-width:0.35277775"
       id="text86">
      <tspan
         style="font-style:normal;font-variant:normal;font-weight:normal;font-stretch:normal;font-family:valentine;-inkscape-font-specification:valentine;stroke-width:0.35277775"
         x="56.095165 73.184265"
         y="250.21411"
         sodipodi:role="line"
         id="tspan84">Mi</tspan>
    </text>
  </g>
</svg>
